name D:\school\WTK\thesis\model\3dpredictsim\Results\windlass\Pog_s1_tmt_bCst_d00_k500_WL10_ig24.mot
datacolumns 128
datarows 4
range 0.00000000 0.03192032
endheader
time	pelvis_tilt	pelvis_list	pelvis_rotation	pelvis_tx	pelvis_ty	pelvis_tz	hip_flexion_l	hip_adduction_l	hip_rotation_l	hip_flexion_r	hip_adduction_r	hip_rotation_r	knee_angle_l	knee_angle_r	ankle_angle_l	ankle_angle_r	subtalar_angle_l	subtalar_angle_r	tmt_angle_l	tmt_angle_r	mtp_angle_l	mtp_angle_r	lumbar_extension	lumbar_bending	lumbar_rotation	arm_flex_l	arm_add_l	arm_rot_l	arm_flex_r	arm_add_r	arm_rot_r	elbow_flex_l	elbow_flex_r	pro_sup_l	pro_sup_r	glut_med1_l/activation	glut_med2_l/activation	glut_med3_l/activation	glut_min1_l/activation	glut_min2_l/activation	glut_min3_l/activation	semimem_l/activation	semiten_l/activation	bifemlh_l/activation	bifemsh_l/activation	sar_l/activation	add_long_l/activation	add_brev_l/activation	add_mag1_l/activation	add_mag2_l/activation	add_mag3_l/activation	tfl_l/activation	pect_l/activation	grac_l/activation	glut_max1_l/activation	glut_max2_l/activation	glut_max3_l/activation	iliacus_l/activation	psoas_l/activation	quad_fem_l/activation	gem_l/activation	peri_l/activation	rect_fem_l/activation	vas_med_l/activation	vas_int_l/activation	vas_lat_l/activation	med_gas_l/activation	lat_gas_l/activation	soleus_l/activation	tib_post_l/activation	flex_dig_l/activation	flex_hal_l/activation	tib_ant_l/activation	per_brev_l/activation	per_long_l/activation	per_tert_l/activation	ext_dig_l/activation	ext_hal_l/activation	ercspn_l/activation	intobl_l/activation	extobl_l/activation	glut_med1_r/activation	glut_med2_r/activation	glut_med3_r/activation	glut_min1_r/activation	glut_min2_r/activation	glut_min3_r/activation	semimem_r/activation	semiten_r/activation	bifemlh_r/activation	bifemsh_r/activation	sar_r/activation	add_long_r/activation	add_brev_r/activation	add_mag1_r/activation	add_mag2_r/activation	add_mag3_r/activation	tfl_r/activation	pect_r/activation	grac_r/activation	glut_max1_r/activation	glut_max2_r/activation	glut_max3_r/activation	iliacus_r/activation	psoas_r/activation	quad_fem_r/activation	gem_r/activation	peri_r/activation	rect_fem_r/activation	vas_med_r/activation	vas_int_r/activation	vas_lat_r/activation	med_gas_r/activation	lat_gas_r/activation	soleus_r/activation	tib_post_r/activation	flex_dig_r/activation	flex_hal_r/activation	tib_ant_r/activation	per_brev_r/activation	per_long_r/activation	per_tert_r/activation	ext_dig_r/activation	ext_hal_r/activation	ercspn_r/activation	intobl_r/activation	extobl_r/activation	
          0.00000000	         -2.92020741	         -1.40937852	          6.77862280	          0.00000000	          0.85806179	         -0.00270594	        -17.31911600	         -1.86566982	         11.43530783	         31.38871785	          3.17357943	          2.48621052	        -11.71686908	        -20.12379831	         -3.96496625	         -6.16352858	         13.64487958	         -8.08589972	         -0.68392843	          0.04835186	         26.59737642	          0.16933178	         -0.49455054	         -0.41391092	         -1.64535469	          5.55072624	        -13.47926351	         15.68892899	        -12.45380012	        -14.04554663	          8.54579354	         37.51681202	         19.34519626	         86.51662706	         86.51662706	          0.33322857	          0.08246986	          0.05000004	          0.33923916	          0.20167950	          0.08881680	          0.05000081	          0.05000009	          0.05000007	          0.07082739	          0.10714074	          0.11606224	          0.05000017	          0.05000018	          0.05000046	          0.05000033	          0.25014536	          0.05001246	          0.05000023	          0.05000117	          0.05000065	          0.05000030	          0.33029734	          0.44759367	          0.05000007	          0.05000041	          0.05000005	          0.25906566	          0.06843225	          0.05884453	          0.05379520	          0.27508988	          0.34704666	          0.23710914	          0.16982314	          0.20576299	          0.25609115	          0.05000003	          0.12328248	          0.19344090	          0.05000011	          0.05000168	          0.05000015	          0.05000001	          0.05000003	          0.05000002	          0.05004529	          0.05886652	          0.05886670	          0.05000075	          0.05000089	          0.05052177	          0.06930592	          0.06930591	          0.20092071	          0.06930579	          0.05000036	          0.09438367	          0.11496581	          0.12866799	          0.11520743	          0.11645637	          0.05000091	          0.05000425	          0.09230881	          0.05886691	          0.05905825	          0.09746751	          0.06157216	          0.06489669	          0.11426319	          0.05886521	          0.05242616	          0.05000004	          0.08567096	          0.10739699	          0.08242179	          0.08159628	          0.08159626	          0.07482569	          0.05000008	          0.05886679	          0.05000053	          0.27398669	          0.27748611	          0.14377293	          0.30902337	          0.63405722	          0.15362937	          0.05251416	          0.11054831	          0.13271370	
          0.01064011	         -2.90680732	         -1.56744987	          7.06936665	          0.01641894	          0.85697083	         -0.00251038	        -16.91883574	         -2.18059440	         11.10234005	         30.82080092	          3.66922720	          2.74174339	        -13.93268961	        -19.93278625	         -4.98852014	         -6.58934639	         14.79676566	         -8.98009417	         -1.34739090	          0.04419737	         27.41793514	          0.26254326	         -0.27426583	         -0.12812447	         -1.72106874	          5.28480538	        -13.51754745	         16.01457981	        -13.51512394	        -14.01933022	          8.33889266	         38.48548345	         19.30342790	         86.51662706	         86.51662706	          0.28303637	          0.07004792	          0.05000000	          0.28814161	          0.17130173	          0.07543886	          0.05000082	          0.05000006	          0.05000005	          0.06015908	          0.09100285	          0.13027604	          0.27040190	          0.05000160	          0.05000070	          0.05000027	          0.21246747	          0.09613007	          0.05000016	          0.05000023	          0.05000014	          0.05000009	          0.28054660	          0.38017527	          0.05000001	          0.05000011	          0.05000004	          0.22004414	          0.06619497	          0.11427192	          0.05000052	          0.23365470	          0.29477306	          0.20139477	          0.14424368	          0.17477016	          0.21751767	          0.10564670	          0.10471379	          0.16430406	          0.05000013	          0.17935715	          0.05000028	          0.05000000	          0.05000003	          0.07568957	          0.05000022	          0.05000019	          0.05000008	          0.05886671	          0.05886428	          0.05000030	          0.05886681	          0.05886680	          0.17711108	          0.05886671	          0.05886531	          0.09607018	          0.25310075	          0.10928867	          0.09785747	          0.14824008	          0.05000011	          0.06249687	          0.07840502	          0.05000023	          0.05016270	          0.12555201	          0.05886677	          0.05886676	          0.19746695	          0.05000049	          0.05000030	          0.05119485	          0.20962197	          0.21262359	          0.17779658	          0.06930591	          0.06930591	          0.06930588	          0.05000000	          0.05000013	          0.05000149	          0.37407983	          0.23569002	          0.12211726	          0.50324571	          0.73373949	          0.35829557	          0.05000002	          0.09389707	          0.11272381	
          0.02128021	         -2.88864392	         -1.72624941	          7.33071955	          0.03306321	          0.85555140	         -0.00230693	        -16.43202651	         -2.46930504	         10.75061276	         30.11598523	          4.17955766	          3.06905236	        -16.34108786	        -20.21881993	         -5.95702501	         -6.96115710	         15.82886969	         -9.94107738	         -1.95633321	          0.02126983	         27.66996712	          0.37297571	         -0.03914282	          0.16439745	         -1.78871993	          4.95591889	        -13.57463057	         16.28859631	        -14.53962567	        -13.99405285	          8.20208481	         39.43085553	         19.18141947	         86.51662706	         86.51662706	          0.24040428	          0.05949704	          0.05886672	          0.24474056	          0.14549958	          0.06407601	          0.05003204	          0.05885930	          0.05886693	          0.05109769	          0.07729569	          0.18426350	          0.40055682	          0.30381389	          0.11103528	          0.16192979	          0.18046479	          0.08165073	          0.05001765	          0.05144164	          0.05886698	          0.05886757	          0.23828951	          0.32291171	          0.05886682	          0.05886697	          0.05886675	          0.18690020	          0.05887800	          0.09706038	          0.09012005	          0.19846066	          0.25037312	          0.17105986	          0.12251711	          0.14844561	          0.18475429	          0.23465987	          0.08894140	          0.13955593	          0.19021800	          0.27741096	          0.22963739	          0.07296744	          0.06930591	          0.06930588	          0.05000006	          0.05000017	          0.10887752	          0.05000005	          0.05000005	          0.05000010	          0.05000007	          0.05000009	          0.15043390	          0.05000001	          0.05000007	          0.08159973	          0.21497775	          0.32936113	          0.29741886	          0.17553388	          0.05000034	          0.05308392	          0.06659544	          0.12313170	          0.12849508	          0.14804387	          0.05000004	          0.05000006	          0.18996363	          0.05886628	          0.05000020	          0.05886676	          0.32577666	          0.31430582	          0.26599324	          0.05886677	          0.05886677	          0.05886675	          0.13967775	          0.05646859	          0.05000020	          0.46178121	          0.20018942	          0.10372346	          0.42744494	          0.62322066	          0.30432766	          0.05000000	          0.07975391	          0.09574489	
          0.03192032	         -2.86751820	         -1.88565597	          7.56045001	          0.04978750	          0.85385202	         -0.00212250	        -15.83980594	         -2.72229476	         10.40323216	         29.16673893	          4.65992058	          3.44939766	        -18.96878996	        -20.59349896	         -6.79404382	         -6.79059732	         16.69947664	        -10.93112817	         -2.30652441	         -0.08305914	         26.89224829	          0.30693056	          0.19967188	          0.46178994	         -1.84495498	          4.58613691	        -13.64225002	         16.51337418	        -15.49516834	        -13.97711666	          8.16973737	         40.34447741	         18.95796957	         86.51662706	         86.51662706	          0.27631693	          0.05053540	          0.05000002	          0.20787680	          0.12358391	          0.05442472	          0.05311235	          0.05000008	          0.05000020	          0.05000007	          0.06930511	          0.15650900	          0.34022335	          0.25805221	          0.09431078	          0.13753929	          0.19356386	          0.06935238	          0.05000021	          0.05000074	          0.05000066	          0.05000076	          0.20239737	          0.27640284	          0.05000009	          0.05000038	          0.05000006	          0.15874859	          0.05000958	          0.08244077	          0.07654581	          0.16856769	          0.21266089	          0.14529411	          0.10406310	          0.12608617	          0.15692588	          0.23285509	          0.10311344	          0.11853555	          0.26076799	          0.30526839	          0.19504861	          0.10091629	          0.05886677	          0.05886675	          0.27629758	          0.38606179	          0.47867461	          0.29992940	          0.18121178	          0.29883987	          0.07756506	          0.10514821	          0.12779149	          0.06930595	          0.05000072	          0.06930888	          0.18259696	          0.27975145	          0.25262049	          0.18083878	          0.05000006	          0.05970546	          0.09977713	          0.28967067	          0.22334692	          0.15984803	          0.05886673	          0.05000126	          0.16135054	          0.05000008	          0.27096191	          0.05000002	          0.29608733	          0.32107670	          0.26907328	          0.05000002	          0.05000003	          0.05000000	          0.17116699	          0.05000016	          0.05000018	          0.53495980	          0.17003607	          0.08810020	          0.36306148	          0.63896396	          0.44515443	          0.05891035	          0.08027560	          0.08132340	
